# xmcd
#
# Track frame offsets: 
#        150
#        18199
#        28795
#        42237
#        51943
#        61479
#        77844
#        88382
#        96957
#        109698
#        125017
#        141379
#
# Disc length: 2054 seconds
#
# Revision: 0
# Processed by: cddbd v1.5.2PL0 Copyright (c) Steve Scherf et al.
# Submitted via: ExactAudioCopy v0.99pb4
#
DISCID=a908040c
DTITLE=Crappydog - Sure Ain't Getting Any Younger
DYEAR=2009
DGENRE=Blues
TTITLE0=Dark
TTITLE1=Mother
TTITLE2=Whisper Tree
TTITLE3=Across The Sea
TTITLE4=Riding A Bike
TTITLE5=Neighbourhood Girl
TTITLE6=Spider
TTITLE7=Things To Eat
TTITLE8=Future Blues
TTITLE9=Bones
TTITLE10=Indian With No Land
TTITLE11=Sure Ain't Getting Any Younger
EXTD=
EXTT0=
EXTT1=
EXTT2=
EXTT3=
EXTT4=
EXTT5=
EXTT6=
EXTT7=
EXTT8=
EXTT9=
EXTT10=
EXTT11=
PLAYORDER=
